<svg version="1.1" id="Layer_1" xmlns="http://www.w3.org/2000/svg" xmlns:xlink="http://www.w3.org/1999/xlink" x="0px" y="0px"
	 width="100%" viewBox="0 0 500 500" enable-background="new 0 0 500 500" xml:space="preserve">
<path fill="#FFFFFF" opacity="1.000000" stroke="none" 
	d="
M452.000000,501.000000 
	C301.333374,501.000000 151.166733,501.000000 1.000081,501.000000 
	C1.000054,334.333405 1.000054,167.666824 1.000027,1.000170 
	C167.666550,1.000113 334.333099,1.000113 500.999756,1.000057 
	C500.999817,167.666519 500.999817,334.333038 500.999908,500.999756 
	C484.833344,501.000000 468.666656,501.000000 452.000000,501.000000 
M149.315765,232.868774 
	C145.682755,232.868774 142.049728,232.868774 138.413086,232.868774 
	C137.357132,232.635300 135.891220,231.802109 135.003357,232.214264 
	C132.719574,233.274384 128.719254,231.581528 128.356903,235.892929 
	C127.428299,246.941696 126.580788,257.997284 125.654800,269.628693 
	C128.892334,268.830322 132.594940,269.006531 133.717606,267.390472 
	C135.494125,264.833221 135.542496,261.075439 136.323364,257.820679 
	C144.201584,260.186493 148.675446,258.715881 152.059967,252.704178 
	C156.078690,245.566025 155.292114,237.981125 149.315765,232.868774 
M251.830231,237.495850 
	C249.036118,250.665970 256.675751,259.948151 269.579315,259.061096 
	C276.695068,258.571930 277.694275,257.197113 276.155487,250.013077 
	C268.339081,251.987930 265.592468,251.638840 263.400879,248.391846 
	C261.119232,245.011429 261.247864,238.347397 263.801392,235.161438 
	C268.517914,229.276749 273.587769,232.936905 278.539032,235.021255 
	C279.495148,226.139191 278.022217,224.260803 270.157074,224.000519 
	C261.531128,223.715042 255.606644,227.860291 251.830231,237.495850 
M102.752296,255.812775 
	C103.657310,256.799194 104.619835,258.676727 105.457687,258.622650 
	C109.813049,258.341553 114.663399,258.611115 118.359253,256.744415 
	C125.572563,253.101166 125.631805,245.019897 119.169273,240.061050 
	C117.458740,238.748520 115.484955,237.746597 113.916389,236.294815 
	C113.095619,235.535202 112.195808,233.520004 112.549324,233.102264 
	C113.371849,232.130280 115.111778,231.067123 116.157585,231.328903 
	C118.465904,231.906677 120.575241,233.279404 124.028465,234.932129 
	C122.882080,231.072937 122.893936,227.112900 120.933304,225.363602 
	C117.110359,221.952667 107.582405,224.458618 104.249054,228.859543 
	C100.903336,233.276810 102.113632,239.461151 107.154541,243.794525 
	C109.215317,245.566025 111.249886,247.368027 114.488815,250.198044 
	C111.286667,250.816940 109.608437,251.540787 108.050354,251.338608 
	C106.213058,251.100204 104.479752,250.060318 102.375816,249.241196 
	C102.496567,251.387970 102.598373,253.197937 102.752296,255.812775 
M210.208084,245.080734 
	C211.910828,232.713943 208.063080,229.644730 196.307617,233.978745 
	C196.035126,234.079208 195.693207,233.991394 195.383667,233.991394 
	C194.356125,232.695724 192.975815,231.862488 191.945801,232.176895 
	C189.610413,232.889740 185.719513,233.891403 185.500381,235.261688 
	C184.259094,243.023346 183.913864,250.928329 183.251984,258.924316 
	C192.424652,257.531525 192.411804,257.530334 193.122559,249.806473 
	C193.305557,247.817917 193.711105,245.845276 193.814529,243.854935 
	C194.011612,240.062210 196.452225,238.313644 199.670593,238.669586 
	C200.600266,238.772430 201.784546,242.308548 201.751404,244.251907 
	C201.668625,249.106293 200.954239,253.949936 200.476120,258.978699 
	C209.009521,257.683868 209.017670,257.684723 209.780029,250.461990 
	C209.937271,248.972290 210.008575,247.473495 210.208084,245.080734 
M280.816437,243.341904 
	C280.787109,243.505829 280.750031,243.668808 280.729584,243.833832 
	C279.313263,255.277298 284.788940,260.157349 295.807587,257.269775 
	C296.105347,257.191742 296.592224,256.917328 296.656769,256.998901 
	C299.914978,261.116119 302.241394,256.794006 304.358704,256.577820 
	C305.154694,248.169312 305.900818,240.287308 306.692841,231.920792 
	C304.810822,232.021896 303.015350,231.994156 301.261536,232.250809 
	C299.787994,232.466431 298.231720,233.605225 296.937439,233.318359 
	C287.890076,231.312973 284.061401,233.430511 280.816437,243.341904 
M166.800461,237.656204 
	C166.390854,235.908737 165.981247,234.161285 165.515991,232.176376 
	C162.756744,232.903748 160.248047,233.565094 157.404602,234.314667 
	C157.880463,236.304321 158.460175,238.020370 158.683670,239.781601 
	C159.827393,248.794388 166.605743,257.378174 159.899551,266.947906 
	C162.936111,267.672974 165.116287,268.193542 167.379852,268.734039 
	C172.521637,257.082184 177.448212,245.917984 182.536331,234.387741 
	C179.476059,233.561066 176.991180,232.889832 174.332932,232.171753 
	C172.489746,236.966492 170.754089,241.481491 168.514618,247.307098 
	C167.797348,243.321243 167.361267,240.898010 166.800461,237.656204 
M218.960007,235.387054 
	C213.552322,241.056137 212.276077,247.594269 215.524826,252.985260 
	C218.855942,258.513000 225.275772,260.216705 232.680481,258.184082 
	C236.970169,257.006500 237.054657,254.500580 236.251297,251.109192 
	C226.151306,253.510620 226.151306,253.510620 223.896149,249.781097 
	C226.602280,249.221054 229.774231,249.350998 231.892838,247.920731 
	C234.362167,246.253677 237.594330,243.097946 237.425613,240.815079 
	C237.221817,238.057449 234.294601,234.729004 231.650940,233.103485 
	C227.618439,230.624023 223.316299,232.417282 218.960007,235.387054 
M310.478333,246.710663 
	C310.190399,250.742828 309.902496,254.774994 309.604126,258.953491 
	C318.587616,257.385529 318.587616,257.385529 319.547455,248.742355 
	C320.510345,240.071915 320.510345,240.071915 328.870850,238.445190 
	C329.258301,236.418030 329.648163,234.378082 330.194733,231.518204 
	C326.822968,232.759003 324.244446,233.707886 322.638519,234.298859 
	C320.515869,233.629974 319.311798,232.920609 318.113464,232.930084 
	C312.953857,232.970963 310.274292,235.348724 310.950684,240.858398 
	C311.148621,242.470749 310.737274,244.157898 310.478333,246.710663 
z"/>
<path fill="#CF2020" opacity="1.000000" stroke="none" 
	d="
M149.674835,233.018097 
	C155.292114,237.981125 156.078690,245.566025 152.059967,252.704178 
	C148.675446,258.715881 144.201584,260.186493 136.323364,257.820679 
	C135.542496,261.075439 135.494125,264.833221 133.717606,267.390472 
	C132.594940,269.006531 128.892334,268.830322 125.654800,269.628693 
	C126.580788,257.997284 127.428299,246.941696 128.356903,235.892929 
	C128.719254,231.581528 132.719574,233.274384 135.003357,232.214264 
	C135.891220,231.802109 137.357132,232.635300 138.413086,232.868774 
	C142.049728,232.868774 145.682755,232.868774 149.674835,233.018097 
M144.317017,239.474335 
	C141.077225,237.014694 138.739014,239.119476 137.471466,241.578827 
	C136.495743,243.471939 136.534760,246.172379 136.907013,248.381668 
	C137.181412,250.010162 138.533630,252.439560 139.748199,252.664795 
	C141.099686,252.915436 143.916565,251.321442 144.200775,250.092316 
	C144.944092,246.877670 144.654343,243.424149 144.317017,239.474335 
z"/>
<path fill="#CF2020" opacity="1.000000" stroke="none" 
	d="
M251.914154,237.100876 
	C255.606644,227.860291 261.531128,223.715042 270.157074,224.000519 
	C278.022217,224.260803 279.495148,226.139191 278.539032,235.021255 
	C273.587769,232.936905 268.517914,229.276749 263.801392,235.161438 
	C261.247864,238.347397 261.119232,245.011429 263.400879,248.391846 
	C265.592468,251.638840 268.339081,251.987930 276.155487,250.013077 
	C277.694275,257.197113 276.695068,258.571930 269.579315,259.061096 
	C256.675751,259.948151 249.036118,250.665970 251.914154,237.100876 
z"/>
<path fill="#CF2020" opacity="1.000000" stroke="none" 
	d="
M102.726242,255.410339 
	C102.598373,253.197937 102.496567,251.387970 102.375816,249.241196 
	C104.479752,250.060318 106.213058,251.100204 108.050354,251.338608 
	C109.608437,251.540787 111.286667,250.816940 114.488815,250.198044 
	C111.249886,247.368027 109.215317,245.566025 107.154541,243.794525 
	C102.113632,239.461151 100.903336,233.276810 104.249054,228.859543 
	C107.582405,224.458618 117.110359,221.952667 120.933304,225.363602 
	C122.893936,227.112900 122.882080,231.072937 124.028465,234.932129 
	C120.575241,233.279404 118.465904,231.906677 116.157585,231.328903 
	C115.111778,231.067123 113.371849,232.130280 112.549324,233.102264 
	C112.195808,233.520004 113.095619,235.535202 113.916389,236.294815 
	C115.484955,237.746597 117.458740,238.748520 119.169273,240.061050 
	C125.631805,245.019897 125.572563,253.101166 118.359253,256.744415 
	C114.663399,258.611115 109.813049,258.341553 105.457687,258.622650 
	C104.619835,258.676727 103.657310,256.799194 102.726242,255.410339 
z"/>
<path fill="#CF2020" opacity="1.000000" stroke="none" 
	d="
M210.163788,245.529816 
	C210.008575,247.473495 209.937271,248.972290 209.780029,250.461990 
	C209.017670,257.684723 209.009521,257.683868 200.476120,258.978699 
	C200.954239,253.949936 201.668625,249.106293 201.751404,244.251907 
	C201.784546,242.308548 200.600266,238.772430 199.670593,238.669586 
	C196.452225,238.313644 194.011612,240.062210 193.814529,243.854935 
	C193.711105,245.845276 193.305557,247.817917 193.122559,249.806473 
	C192.411804,257.530334 192.424652,257.531525 183.251984,258.924316 
	C183.913864,250.928329 184.259094,243.023346 185.500381,235.261688 
	C185.719513,233.891403 189.610413,232.889740 191.945801,232.176895 
	C192.975815,231.862488 194.356125,232.695724 195.383667,233.991394 
	C195.693207,233.991394 196.035126,234.079208 196.307617,233.978745 
	C208.063080,229.644730 211.910828,232.713943 210.163788,245.529816 
z"/>
<path fill="#CF2020" opacity="1.000000" stroke="none" 
	d="
M280.883423,242.947037 
	C284.061401,233.430511 287.890076,231.312973 296.937439,233.318359 
	C298.231720,233.605225 299.787994,232.466431 301.261536,232.250809 
	C303.015350,231.994156 304.810822,232.021896 306.692841,231.920792 
	C305.900818,240.287308 305.154694,248.169312 304.358704,256.577820 
	C302.241394,256.794006 299.914978,261.116119 296.656769,256.998901 
	C296.592224,256.917328 296.105347,257.191742 295.807587,257.269775 
	C284.788940,260.157349 279.313263,255.277298 280.729584,243.833832 
	C280.750031,243.668808 280.787109,243.505829 280.883423,242.947037 
M296.232483,251.408478 
	C296.749939,248.507462 297.588776,245.612396 297.642639,242.702820 
	C297.667725,241.346970 296.396057,239.106079 295.304535,238.819595 
	C294.080322,238.498322 291.429047,239.625351 291.098602,240.663376 
	C290.234406,243.378082 289.846558,246.429565 290.109619,249.268875 
	C290.406342,252.471802 292.390259,253.969894 296.232483,251.408478 
z"/>
<path fill="#CF2020" opacity="1.000000" stroke="none" 
	d="
M166.862823,238.065491 
	C167.361267,240.898010 167.797348,243.321243 168.514618,247.307098 
	C170.754089,241.481491 172.489746,236.966492 174.332932,232.171753 
	C176.991180,232.889832 179.476059,233.561066 182.536331,234.387741 
	C177.448212,245.917984 172.521637,257.082184 167.379852,268.734039 
	C165.116287,268.193542 162.936111,267.672974 159.899551,266.947906 
	C166.605743,257.378174 159.827393,248.794388 158.683670,239.781601 
	C158.460175,238.020370 157.880463,236.304321 157.404602,234.314667 
	C160.248047,233.565094 162.756744,232.903748 165.515991,232.176376 
	C165.981247,234.161285 166.390854,235.908737 166.862823,238.065491 
z"/>
<path fill="#CF2020" opacity="1.000000" stroke="none" 
	d="
M219.252960,235.157913 
	C223.316299,232.417282 227.618439,230.624023 231.650940,233.103485 
	C234.294601,234.729004 237.221817,238.057449 237.425613,240.815079 
	C237.594330,243.097946 234.362167,246.253677 231.892838,247.920731 
	C229.774231,249.350998 226.602280,249.221054 223.895798,249.779510 
	C226.151306,253.510620 226.151306,253.510620 236.251297,251.109192 
	C237.054657,254.500580 236.970169,257.006500 232.680481,258.184082 
	C225.275772,260.216705 218.855942,258.513000 215.524826,252.985260 
	C212.276077,247.594269 213.552322,241.056137 219.252960,235.157913 
M225.892044,243.233124 
	C227.586075,242.472534 229.280121,241.711945 231.278671,240.814621 
	C227.392761,237.698166 223.742386,238.764343 223.270447,242.579361 
	C223.244247,242.791046 224.528091,243.164810 225.892044,243.233124 
z"/>
<path fill="#CF2020" opacity="1.000000" stroke="none" 
	d="
M310.541748,246.260712 
	C310.737274,244.157898 311.148621,242.470749 310.950684,240.858398 
	C310.274292,235.348724 312.953857,232.970963 318.113464,232.930084 
	C319.311798,232.920609 320.515869,233.629974 322.638519,234.298859 
	C324.244446,233.707886 326.822968,232.759003 330.194733,231.518204 
	C329.648163,234.378082 329.258301,236.418030 328.870850,238.445190 
	C320.510345,240.071915 320.510345,240.071915 319.547455,248.742355 
	C318.587616,257.385529 318.587616,257.385529 309.604126,258.953491 
	C309.902496,254.774994 310.190399,250.742828 310.541748,246.260712 
z"/>
<path fill="#FFFFFF" opacity="1.000000" stroke="none" 
	d="
M144.546722,239.770096 
	C144.654343,243.424149 144.944092,246.877670 144.200775,250.092316 
	C143.916565,251.321442 141.099686,252.915436 139.748199,252.664795 
	C138.533630,252.439560 137.181412,250.010162 136.907013,248.381668 
	C136.534760,246.172379 136.495743,243.471939 137.471466,241.578827 
	C138.739014,239.119476 141.077225,237.014694 144.546722,239.770096 
z"/>
<path fill="#FFFFFF" opacity="1.000000" stroke="none" 
	d="
M295.943085,251.688660 
	C292.390259,253.969894 290.406342,252.471802 290.109619,249.268875 
	C289.846558,246.429565 290.234406,243.378082 291.098602,240.663376 
	C291.429047,239.625351 294.080322,238.498322 295.304535,238.819595 
	C296.396057,239.106079 297.667725,241.346970 297.642639,242.702820 
	C297.588776,245.612396 296.749939,248.507462 295.943085,251.688660 
z"/>
<path fill="#FFFFFF" opacity="1.000000" stroke="none" 
	d="
M225.547119,243.348129 
	C224.528091,243.164810 223.244247,242.791046 223.270447,242.579361 
	C223.742386,238.764343 227.392761,237.698166 231.278671,240.814621 
	C229.280121,241.711945 227.586075,242.472534 225.547119,243.348129 
z"/>
</svg>