<svg version="1.1" id="Layer_1" xmlns="http://www.w3.org/2000/svg" xmlns:xlink="http://www.w3.org/1999/xlink" x="0px" y="0px"
	 width="100%" viewBox="0 0 512 512" enable-background="new 0 0 512 512" xml:space="preserve">
<path fill="#000000" opacity="1.000000" stroke="none" 
	d="
M1.000000,202.000000 
	C1.000000,135.029907 1.000000,68.059814 1.000000,1.044861 
	C171.560562,1.044861 342.121124,1.044861 513.000000,1.044861 
	C513.000000,88.687843 513.000000,176.376068 512.667480,264.442413 
	C504.816711,259.323029 497.256958,253.881271 489.787811,248.317871 
	C464.848328,229.741730 437.131653,219.492355 405.756409,219.982101 
	C396.762909,220.122482 387.701355,219.331238 378.786499,220.180054 
	C368.500183,221.159439 360.779968,216.971756 352.662415,211.479156 
	C335.589844,199.927277 318.368225,188.445358 300.352020,178.482208 
	C283.443298,169.131516 264.563934,164.440414 245.208237,164.163620 
	C207.400742,163.622986 169.579926,163.962738 131.765015,164.073166 
	C128.155792,164.083710 124.415298,164.601700 120.963074,165.639954 
	C95.610703,173.264755 70.326553,181.115997 44.999619,188.825928 
	C30.353521,193.284424 15.667859,197.612976 1.000000,202.000000 
z"/>
<path fill="#000000" opacity="1.000000" stroke="none" 
	d="
M513.000000,275.000000 
	C513.000000,354.297363 513.000000,433.594727 513.000000,512.946045 
	C342.446686,512.946045 171.893356,512.946045 1.000000,512.946045 
	C1.000000,442.978943 1.000000,372.957306 1.328729,302.558838 
	C2.873842,303.269684 4.272273,304.212433 5.274299,305.470856 
	C9.110034,310.287964 13.053322,315.047668 16.496611,320.139771 
	C19.047012,323.911377 22.171646,325.260925 26.580278,325.059479 
	C32.231659,324.801208 37.929970,324.699493 43.555725,325.164062 
	C45.926788,325.359833 48.941273,326.564789 50.340450,328.348572 
	C62.461563,343.801575 78.046104,351.054810 97.744202,350.067963 
	C112.230957,349.342224 124.357803,343.706055 133.547546,332.852020 
	C138.407639,327.111786 143.272659,324.749390 150.865417,324.816193 
	C193.338821,325.189941 235.817245,324.990936 278.293945,325.002167 
	C281.750916,325.003082 285.310455,325.255341 285.478851,320.082764 
	C291.949493,320.017151 297.954865,319.998505 303.983215,320.385132 
	C303.995728,324.941345 306.891815,324.996399 309.877869,324.995300 
	C328.854462,324.988251 347.832886,324.870636 366.805511,325.146942 
	C369.403168,325.184784 372.953064,326.476990 374.406891,328.424225 
	C396.373932,357.846069 441.185944,357.032776 461.479980,328.948700 
	C463.538849,326.099487 465.950165,324.872192 469.462524,324.949982 
	C477.115936,325.119568 484.775848,325.019104 492.432953,324.988708 
	C500.119537,324.958221 501.384094,324.074280 500.893524,316.323883 
	C500.125885,304.195953 502.004486,292.813080 508.293121,282.314484 
	C509.782227,279.828491 511.426880,277.435669 513.000000,275.000000 
z"/>
<path fill="#12121B" opacity="1.000000" stroke="none" 
	d="
M513.000000,274.545898 
	C511.426880,277.435669 509.782227,279.828491 508.293121,282.314484 
	C502.004486,292.813080 500.125885,304.195953 500.893524,316.323883 
	C501.384094,324.074280 500.119537,324.958221 492.432953,324.988708 
	C484.775848,325.019104 477.115936,325.119568 469.462524,324.949982 
	C465.950165,324.872192 463.538849,326.099487 461.479980,328.948700 
	C441.185944,357.032776 396.373932,357.846069 374.406891,328.424225 
	C372.953064,326.476990 369.403168,325.184784 366.805511,325.146942 
	C347.832886,324.870636 328.854462,324.988251 309.877869,324.995300 
	C306.891815,324.996399 303.995728,324.941345 304.037964,319.964417 
	C303.650543,315.825592 305.216919,314.904480 308.380920,314.944244 
	C319.840912,315.088287 331.303864,314.998810 342.765686,314.998077 
	C350.881592,314.997559 358.997467,314.997986 367.137878,314.997986 
	C366.203156,308.675568 365.335358,302.806030 364.556000,296.492065 
	C364.701477,295.218475 364.769745,294.389923 364.813965,293.560059 
	C366.682098,258.502228 400.829193,234.640289 434.252411,245.024933 
	C451.543610,250.397339 471.343872,266.910217 472.085388,297.401123 
	C471.172974,303.363464 470.330505,308.898224 469.458160,314.629333 
	C476.465820,314.629333 483.475494,314.629333 490.838196,314.629333 
	C490.838196,308.502045 490.838196,302.737793 490.910645,296.599854 
	C493.894623,289.023468 496.806183,281.820831 499.998718,273.923096 
	C492.122650,273.923096 484.746796,273.923096 477.260864,273.923096 
	C477.260864,270.398010 477.260864,267.476379 477.260864,263.809326 
	C482.118713,263.809326 486.737427,263.809326 491.356171,263.809326 
	C491.477264,263.362457 491.598358,262.915588 491.719452,262.468719 
	C484.007355,257.277283 476.520142,251.705185 468.530090,246.984116 
	C456.719360,240.005493 444.076019,234.927979 430.108276,232.685547 
	C411.821259,228.586792 393.540802,230.106003 375.364258,230.131744 
	C366.905579,230.143723 358.898743,229.898621 351.980103,223.696869 
	C338.629822,214.498123 325.650726,205.329132 312.291534,196.752167 
	C306.247375,192.871658 299.447784,190.167725 292.994019,186.964661 
	C292.997131,186.999329 293.066254,186.991180 292.899414,186.693146 
	C292.302277,186.257523 291.872009,186.119919 291.456299,186.022751 
	C291.470856,186.063171 291.551758,186.034332 291.337952,185.836655 
	C290.768372,185.498260 290.412598,185.357559 289.721954,185.066406 
	C273.132721,177.901413 256.100220,174.191376 238.453262,174.051453 
	C204.643082,173.783340 170.829254,173.852081 137.017899,174.001816 
	C132.283615,174.022781 127.361832,174.674210 122.855217,176.083725 
	C95.877380,184.521469 68.995720,193.266708 41.561722,201.951294 
	C31.937325,204.447342 22.802094,206.796875 13.766363,209.481323 
	C12.587918,209.831436 11.921163,211.903870 11.017399,213.178528 
	C12.279522,213.728088 13.541641,214.277664 15.279708,214.901276 
	C19.745625,214.983368 23.736095,214.953323 27.725473,215.006042 
	C44.579803,215.228806 40.096813,213.130753 48.057602,228.110489 
	C54.316875,239.888489 54.261318,249.651917 46.323910,260.507599 
	C42.582325,265.624847 39.485085,268.650726 32.897655,268.129761 
	C25.710047,267.561279 18.442739,268.000580 11.007760,268.000580 
	C11.007760,276.996552 10.930846,285.136719 11.086116,293.272461 
	C11.110981,294.575348 12.174752,295.858459 12.886311,297.469177 
	C16.620911,302.566345 20.180113,307.382050 23.868767,312.096466 
	C24.741154,313.211456 26.007185,314.725555 27.162930,314.790192 
	C32.369427,315.081421 37.601398,314.917236 42.970978,314.917236 
	C41.932468,308.412842 41.020210,302.699188 40.201508,296.583313 
	C40.432495,294.689850 40.572712,293.198914 40.706947,291.707428 
	C44.141888,253.541962 84.853180,230.956573 118.702324,248.714828 
	C137.967545,258.821899 147.000656,275.583618 147.962158,297.400330 
	C147.019592,303.367706 146.164352,308.919678 145.229431,314.988892 
	C191.458145,314.988892 237.526779,314.988892 283.368378,314.988892 
	C284.028625,317.052063 284.521088,318.590881 285.013550,320.129730 
	C285.310455,325.255341 281.750916,325.003082 278.293945,325.002167 
	C235.817245,324.990936 193.338821,325.189941 150.865417,324.816193 
	C143.272659,324.749390 138.407639,327.111786 133.547546,332.852020 
	C124.357803,343.706055 112.230957,349.342224 97.744202,350.067963 
	C78.046104,351.054810 62.461563,343.801575 50.340450,328.348572 
	C48.941273,326.564789 45.926788,325.359833 43.555725,325.164062 
	C37.929970,324.699493 32.231659,324.801208 26.580278,325.059479 
	C22.171646,325.260925 19.047012,323.911377 16.496611,320.139771 
	C13.053322,315.047668 9.110034,310.287964 5.274299,305.470856 
	C4.272273,304.212433 2.873842,303.269684 1.328729,302.091003 
	C1.000000,287.979095 1.000000,273.958221 1.401304,259.390106 
	C3.098847,258.590698 4.416753,258.044342 5.687525,258.137939 
	C10.802688,258.514648 12.365852,256.024628 12.062011,251.257980 
	C11.778539,246.810883 12.003386,242.331406 12.003495,237.866180 
	C12.003774,226.483215 12.003552,226.483215 1.000000,224.000000 
	C1.000000,216.979050 1.000000,209.958099 1.000000,202.468567 
	C15.667859,197.612976 30.353521,193.284424 44.999619,188.825928 
	C70.326553,181.115997 95.610703,173.264755 120.963074,165.639954 
	C124.415298,164.601700 128.155792,164.083710 131.765015,164.073166 
	C169.579926,163.962738 207.400742,163.622986 245.208237,164.163620 
	C264.563934,164.440414 283.443298,169.131516 300.352020,178.482208 
	C318.368225,188.445358 335.589844,199.927277 352.662415,211.479156 
	C360.779968,216.971756 368.500183,221.159439 378.786499,220.180054 
	C387.701355,219.331238 396.762909,220.122482 405.756409,219.982101 
	C437.131653,219.492355 464.848328,229.741730 489.787811,248.317871 
	C497.256958,253.881271 504.816711,259.323029 512.667480,264.910278 
	C513.000000,268.030609 513.000000,271.061188 513.000000,274.545898 
M31.698782,257.951294 
	C34.470615,258.392303 35.995438,257.165619 37.739239,254.878860 
	C43.052181,247.911682 44.073845,241.028061 39.135899,233.511703 
	C38.238415,232.145584 37.611313,230.525955 37.194614,228.935516 
	C36.298874,225.516785 34.189812,224.414474 30.013344,225.031921 
	C27.598864,225.031921 25.184383,225.031921 22.660160,225.031921 
	C22.660160,236.318481 22.660160,246.998367 22.660160,257.834442 
	C25.628231,257.834442 28.257954,257.834442 31.698782,257.951294 
M460.870209,305.991089 
	C461.000061,305.170197 461.120972,304.347809 461.261017,303.528656 
	C466.622101,272.168304 437.763123,245.829849 406.387085,254.237778 
	C400.266724,257.828217 394.146362,261.418640 387.475830,265.390991 
	C366.178436,287.041260 372.477783,322.898804 399.859192,335.880280 
	C415.945343,343.506744 438.440887,339.356140 449.570190,326.481293 
	C453.279602,319.923248 456.989014,313.365204 460.870209,305.991089 
M82.351837,254.207520 
	C76.213806,257.801300 70.075775,261.395081 63.397972,265.376129 
	C51.051373,277.756104 47.723446,292.842316 52.490917,309.044281 
	C61.955784,341.209961 102.986984,350.457214 126.406441,325.517609 
	C129.614563,319.365997 132.822678,313.214355 136.324783,306.325500 
	C144.527527,274.683685 114.889511,245.600098 82.351837,254.207520 
z"/>
<path fill="#000000" opacity="1.000000" stroke="none" 
	d="
M1.000000,224.468658 
	C12.003552,226.483215 12.003774,226.483215 12.003495,237.866180 
	C12.003386,242.331406 11.778539,246.810883 12.062011,251.257980 
	C12.365852,256.024628 10.802688,258.514648 5.687525,258.137939 
	C4.416753,258.044342 3.098847,258.590698 1.401304,258.921448 
	C1.000000,247.645767 1.000000,236.291550 1.000000,224.468658 
z"/>
<path fill="#B4100B" opacity="1.000000" stroke="none" 
	d="
M364.467590,296.936462 
	C365.335358,302.806030 366.203156,308.675568 367.137878,314.997986 
	C358.997467,314.997986 350.881592,314.997559 342.765686,314.998077 
	C331.303864,314.998810 319.840912,315.088287 308.380920,314.944244 
	C305.216919,314.904480 303.650543,315.825592 304.014954,319.559143 
	C297.954865,319.998505 291.949493,320.017151 285.478851,320.082764 
	C284.521088,318.590881 284.028625,317.052063 283.368378,314.988892 
	C237.526779,314.988892 191.458145,314.988892 145.229431,314.988892 
	C146.164352,308.919678 147.019592,303.367706 148.427567,297.404968 
	C188.568314,296.997406 228.156326,297.012360 267.744293,296.978851 
	C270.560791,296.976471 273.376984,296.618225 276.577972,296.366241 
	C303.465332,297.932159 329.968048,299.557251 356.509003,301.184723 
	C357.042847,299.510315 357.441315,298.260559 358.258728,297.009827 
	C360.607605,296.984680 362.537598,296.960571 364.467590,296.936462 
z"/>
<path fill="#DA3328" opacity="1.000000" stroke="none" 
	d="
M276.193298,296.425476 
	C273.376984,296.618225 270.560791,296.976471 267.744293,296.978851 
	C228.156326,297.012360 188.568314,296.997406 148.514893,296.989563 
	C147.000656,275.583618 137.967545,258.821899 118.702324,248.714828 
	C84.853180,230.956573 44.141888,253.541962 40.706947,291.707428 
	C40.572712,293.198914 40.432495,294.689850 39.725777,296.589203 
	C30.357075,297.048462 21.557661,297.099579 12.758246,297.150696 
	C12.174752,295.858459 11.110981,294.575348 11.086116,293.272461 
	C10.930846,285.136719 11.007760,276.996552 11.007760,268.000580 
	C18.442739,268.000580 25.710047,267.561279 32.897655,268.129761 
	C39.485085,268.650726 42.582325,265.624847 46.323910,260.507599 
	C54.261318,249.651917 54.316875,239.888489 48.057602,228.110489 
	C40.096813,213.130753 44.579803,215.228806 27.725473,215.006042 
	C23.736095,214.953323 19.745625,214.983368 15.680956,214.755783 
	C33.683334,213.024796 51.755432,211.449844 69.839890,210.032547 
	C77.292198,209.448502 84.910515,208.082550 92.214546,208.991348 
	C131.036102,213.821808 169.778107,219.289413 208.555649,224.476746 
	C225.382935,226.727737 242.177551,230.022049 259.077911,230.759796 
	C293.327118,232.254822 327.636139,232.502060 361.924652,232.930191 
	C384.738281,233.215057 407.559174,232.922470 430.376801,232.888351 
	C444.076019,234.927979 456.719360,240.005493 468.530090,246.984116 
	C476.520142,251.705185 484.007355,257.277283 491.719452,262.468719 
	C491.598358,262.915588 491.477264,263.362457 491.356171,263.809326 
	C486.737427,263.809326 482.118713,263.809326 477.260864,263.809326 
	C477.260864,267.476379 477.260864,270.398010 477.260864,273.923096 
	C484.746796,273.923096 492.122650,273.923096 499.998718,273.923096 
	C496.806183,281.820831 493.894623,289.023468 490.453033,296.606018 
	C484.000458,296.981781 478.077911,296.977631 472.155365,296.973480 
	C471.343872,266.910217 451.543610,250.397339 434.252411,245.024933 
	C400.829193,234.640289 366.682098,258.502228 364.813965,293.560059 
	C364.769745,294.389923 364.701477,295.218475 364.556030,296.492065 
	C362.537598,296.960571 360.607605,296.984680 358.209656,296.609161 
	C357.155365,294.428223 356.569061,292.646942 355.759277,290.603699 
	C352.636566,289.261963 349.810669,287.539581 346.827118,287.199219 
	C305.028198,282.431641 263.247620,277.428802 221.367630,273.493317 
	C209.252945,272.354858 205.158936,262.909363 196.888992,256.720642 
	C202.329819,253.089325 206.803070,250.398102 212.511414,250.967484 
	C216.977951,251.412994 221.460693,251.709839 225.918854,252.223511 
	C264.904449,256.715454 303.886536,261.238007 342.868408,265.762115 
	C346.896973,266.229645 350.530273,265.694946 353.368835,261.843475 
	C354.256561,258.580719 354.838287,255.547073 355.500977,252.091202 
	C351.876404,251.513123 348.960327,251.029480 346.038391,250.584808 
	C297.025146,243.125961 248.015152,235.645691 198.984268,228.304840 
	C196.837509,227.983429 194.313400,228.517532 192.280014,229.388474 
	C182.801590,233.448105 173.421310,237.738541 164.031403,242.002533 
	C158.251831,244.627090 157.581818,247.333893 161.534775,252.365540 
	C169.968704,263.100891 178.798874,273.544708 186.807266,284.586273 
	C190.801407,290.093109 195.421753,291.809387 201.917358,292.110840 
	C226.689392,293.260498 251.436737,294.942413 276.193298,296.425476 
z"/>
<path fill="#E37066" opacity="1.000000" stroke="none" 
	d="
M430.108276,232.685547 
	C407.559174,232.922470 384.738281,233.215057 361.924652,232.930191 
	C327.636139,232.502060 293.327118,232.254822 259.077911,230.759796 
	C242.177551,230.022049 225.382935,226.727737 208.555649,224.476746 
	C169.778107,219.289413 131.036102,213.821808 92.214546,208.991348 
	C84.910515,208.082550 77.292198,209.448502 69.839890,210.032547 
	C51.755432,211.449844 33.683334,213.024796 15.205009,214.681732 
	C13.541641,214.277664 12.279522,213.728088 11.017399,213.178528 
	C11.921163,211.903870 12.587918,209.831436 13.766363,209.481323 
	C22.802094,206.796875 31.937325,204.447342 41.799355,202.033203 
	C56.547215,200.674362 70.537361,199.276047 84.686378,198.236542 
	C87.271606,199.987305 89.548691,202.080017 92.153366,202.634842 
	C98.940826,204.080627 105.869751,204.866653 112.746262,205.888870 
	C120.371941,207.022446 128.002075,208.126099 135.422684,209.212402 
	C136.075516,206.998444 136.526276,205.469772 137.346542,204.108215 
	C143.806870,205.183167 149.897675,206.091003 156.065002,207.420120 
	C156.141510,209.286804 156.141510,210.732208 156.141510,212.564148 
	C171.678665,214.922180 186.906311,217.225647 202.131424,219.545792 
	C220.526443,222.348969 238.838547,226.562134 257.333099,227.632233 
	C281.700348,229.042114 306.210236,227.975235 330.658722,228.007553 
	C334.086487,228.012085 336.434540,226.743744 337.553040,223.212585 
	C340.369598,223.255463 342.809143,223.286118 345.592346,223.434601 
	C348.022705,223.691010 350.109467,223.829575 352.196198,223.968155 
	C358.898743,229.898621 366.905579,230.143723 375.364258,230.131744 
	C393.540802,230.106003 411.821259,228.586792 430.108276,232.685547 
z"/>
<path fill="#1C2617" opacity="1.000000" stroke="none" 
	d="
M126.008652,326.063995 
	C102.986984,350.457214 61.955784,341.209961 52.490917,309.044281 
	C47.723446,292.842316 51.051373,277.756104 63.926811,265.406372 
	C69.551361,268.161316 70.198357,273.177856 70.883110,278.444611 
	C67.022522,285.540802 64.057556,292.479340 65.429581,300.538788 
	C68.830612,320.516754 92.396927,333.456482 112.322647,319.164307 
	C118.085236,319.649841 122.373932,322.209106 126.008652,326.063995 
z"/>
<path fill="#1C2617" opacity="1.000000" stroke="none" 
	d="
M449.020142,326.809723 
	C438.440887,339.356140 415.945343,343.506744 399.859192,335.880280 
	C372.477783,322.898804 366.178436,287.041260 388.006470,265.415833 
	C393.732941,268.090973 394.970459,272.768127 394.893402,278.393616 
	C391.057159,285.507782 388.056763,292.443207 389.423431,300.511719 
	C392.806305,320.483185 416.364563,333.478210 436.340363,319.158264 
	C441.589142,320.514252 447.486908,320.065460 449.020142,326.809723 
z"/>
<path fill="#D43329" opacity="1.000000" stroke="none" 
	d="
M345.248688,223.316772 
	C342.809143,223.286118 340.369598,223.255463 337.464386,222.850433 
	C335.675446,220.845413 334.600555,218.892563 332.982025,217.644928 
	C328.236969,213.987198 323.295990,210.581100 318.395599,207.127792 
	C291.176727,187.946716 260.929840,178.173492 227.613327,178.100876 
	C199.128632,178.038773 170.643661,178.071899 142.158905,178.117737 
	C139.854691,178.121445 137.455048,178.211426 135.262772,178.834717 
	C120.059738,183.156998 104.851105,187.476562 89.781494,192.231873 
	C87.648682,192.904877 86.260391,195.937332 84.527504,197.877716 
	C70.537361,199.276047 56.547215,200.674362 42.319443,201.990753 
	C68.995720,193.266708 95.877380,184.521469 122.855217,176.083725 
	C127.361832,174.674210 132.283615,174.022781 137.017899,174.001816 
	C170.829254,173.852081 204.643082,173.783340 238.453262,174.051453 
	C256.100220,174.191376 273.132721,177.901413 289.922485,185.277832 
	C290.822510,185.771271 291.187134,185.902802 291.551758,186.034332 
	C291.551758,186.034332 291.470856,186.063171 291.673279,186.271271 
	C292.272522,186.649963 292.669403,186.820572 293.066254,186.991180 
	C293.066254,186.991180 292.997131,186.999329 293.156281,187.262390 
	C310.626526,199.455902 327.937592,211.386337 345.248688,223.316772 
z"/>
<path fill="#323D2C" opacity="1.000000" stroke="none" 
	d="
M126.207550,325.790802 
	C122.373932,322.209106 118.085236,319.649841 112.562019,318.930359 
	C123.281487,309.136475 126.179794,294.418671 119.551208,282.509399 
	C112.904610,270.567749 98.845085,264.356995 86.017387,268.809509 
	C80.585365,270.694977 75.974030,274.944824 70.989685,278.120026 
	C70.198357,273.177856 69.551361,268.161316 64.196693,265.212738 
	C70.075775,261.395081 76.213806,257.801300 82.975555,254.411682 
	C85.328728,255.070145 87.041718,255.839783 88.790154,255.931152 
	C112.402222,257.165344 131.608994,275.361847 134.126862,298.850708 
	C134.424164,301.624237 135.380142,304.327118 136.030792,307.062744 
	C132.822678,313.214355 129.614563,319.365997 126.207550,325.790802 
z"/>
<path fill="#323D2C" opacity="1.000000" stroke="none" 
	d="
M395.000519,278.063538 
	C394.970459,272.768127 393.732941,268.090973 388.281555,265.224884 
	C394.146362,261.418640 400.266724,257.828217 407.006226,254.438705 
	C409.349579,255.086136 411.057861,255.842728 412.800446,255.932327 
	C436.492249,257.150635 455.504089,275.265228 458.172699,299.048035 
	C458.469727,301.695526 459.830811,304.223663 460.698425,306.807159 
	C456.989014,313.365204 453.279602,319.923248 449.295166,326.645508 
	C447.486908,320.065460 441.589142,320.514252 436.577362,318.924744 
	C449.025055,307.605225 450.630493,289.582184 440.109894,277.656738 
	C428.751007,264.781067 410.879761,263.875702 398.043274,275.514618 
	C397.063873,276.402679 396.016388,277.215668 395.000519,278.063538 
z"/>
<path fill="#464F42" opacity="1.000000" stroke="none" 
	d="
M460.784332,306.399109 
	C459.830811,304.223663 458.469727,301.695526 458.172699,299.048035 
	C455.504089,275.265228 436.492249,257.150635 412.800446,255.932327 
	C411.057861,255.842728 409.349579,255.086136 407.371033,254.377075 
	C437.763123,245.829849 466.622101,272.168304 461.261017,303.528656 
	C461.120972,304.347809 461.000061,305.170197 460.784332,306.399109 
z"/>
<path fill="#464F42" opacity="1.000000" stroke="none" 
	d="
M136.177780,306.694122 
	C135.380142,304.327118 134.424164,301.624237 134.126862,298.850708 
	C131.608994,275.361847 112.402222,257.165344 88.790154,255.931152 
	C87.041718,255.839783 85.328728,255.070145 83.343475,254.350067 
	C114.889511,245.600098 144.527527,274.683685 136.177780,306.694122 
z"/>
<path fill="#B3100B" opacity="1.000000" stroke="none" 
	d="
M12.886309,297.469177 
	C21.557661,297.099579 30.357075,297.048462 39.632217,296.991455 
	C41.020210,302.699188 41.932468,308.412842 42.970978,314.917236 
	C37.601398,314.917236 32.369427,315.081421 27.162930,314.790192 
	C26.007185,314.725555 24.741154,313.211456 23.868767,312.096466 
	C20.180113,307.382050 16.620911,302.566345 12.886309,297.469177 
z"/>
<path fill="#B4100B" opacity="1.000000" stroke="none" 
	d="
M472.085388,297.401123 
	C478.077911,296.977631 484.000458,296.981781 490.380615,296.979736 
	C490.838196,302.737793 490.838196,308.502045 490.838196,314.629333 
	C483.475494,314.629333 476.465820,314.629333 469.458160,314.629333 
	C470.330505,308.898224 471.172974,303.363464 472.085388,297.401123 
z"/>
<path fill="#DF655B" opacity="1.000000" stroke="none" 
	d="
M30.887676,257.834442 
	C28.257954,257.834442 25.628231,257.834442 22.660160,257.834442 
	C22.660160,246.998367 22.660160,236.318481 22.660160,225.031921 
	C25.184383,225.031921 27.598864,225.031921 30.454025,225.556824 
	C30.892365,236.665955 30.890020,247.250198 30.887676,257.834442 
z"/>
<path fill="#B3100B" opacity="1.000000" stroke="none" 
	d="
M31.293228,257.892883 
	C30.890020,247.250198 30.892365,236.665955 30.891142,225.623627 
	C34.189812,224.414474 36.298874,225.516785 37.194614,228.935516 
	C37.611313,230.525955 38.238415,232.145584 39.135899,233.511703 
	C44.073845,241.028061 43.052181,247.911682 37.739239,254.878860 
	C35.995438,257.165619 34.470615,258.392303 31.293228,257.892883 
z"/>
<path fill="#737666" opacity="1.000000" stroke="none" 
	d="
M345.592346,223.434601 
	C327.937592,211.386337 310.626526,199.455902 293.153198,187.227722 
	C299.447784,190.167725 306.247375,192.871658 312.291534,196.752167 
	C325.650726,205.329132 338.629822,214.498123 351.980103,223.696869 
	C350.109467,223.829575 348.022705,223.691010 345.592346,223.434601 
z"/>
<path fill="#737666" opacity="1.000000" stroke="none" 
	d="
M291.337952,185.836655 
	C291.187134,185.902802 290.822510,185.771271 290.257385,185.428299 
	C290.412598,185.357559 290.768372,185.498260 291.337952,185.836655 
z"/>
<path fill="#737666" opacity="1.000000" stroke="none" 
	d="
M292.899414,186.693146 
	C292.669403,186.820572 292.272522,186.649963 291.658691,186.230835 
	C291.872009,186.119919 292.302277,186.257523 292.899414,186.693146 
z"/>
<path fill="#15121B" opacity="1.000000" stroke="none" 
	d="
M355.982727,290.865662 
	C356.569061,292.646942 357.155365,294.428223 357.790771,296.610168 
	C357.441315,298.260559 357.042847,299.510315 356.509003,301.184723 
	C329.968048,299.557251 303.465332,297.932159 276.577972,296.366272 
	C251.436737,294.942413 226.689392,293.260498 201.917358,292.110840 
	C195.421753,291.809387 190.801407,290.093109 186.807266,284.586273 
	C178.798874,273.544708 169.968704,263.100891 161.534775,252.365540 
	C157.581818,247.333893 158.251831,244.627090 164.031403,242.002533 
	C173.421310,237.738541 182.801590,233.448105 192.280014,229.388474 
	C194.313400,228.517532 196.837509,227.983429 198.984268,228.304840 
	C248.015152,235.645691 297.025146,243.125961 346.038391,250.584808 
	C348.960327,251.029480 351.876404,251.513123 355.500977,252.091202 
	C354.838287,255.547073 354.256561,258.580719 352.984497,261.703979 
	C351.483398,261.604858 350.681183,261.359741 349.860626,261.235596 
	C305.590302,254.538025 261.320770,247.834976 217.044205,241.178848 
	C210.308289,240.166229 203.165527,237.598740 196.876968,238.920120 
	C188.491653,240.682083 180.758362,245.546997 172.065002,249.378830 
	C179.700592,259.048035 186.960373,267.911835 193.811050,277.081299 
	C196.495377,280.674225 199.540741,281.844238 203.885101,282.079559 
	C235.144058,283.772827 266.387207,285.755646 297.638611,287.590973 
	C317.083710,288.732910 336.534485,289.777435 355.982727,290.865662 
z"/>
<path fill="#B3110C" opacity="1.000000" stroke="none" 
	d="
M355.759277,290.603699 
	C336.534485,289.777435 317.083710,288.732910 297.638611,287.590973 
	C266.387207,285.755646 235.144058,283.772827 203.885101,282.079559 
	C199.540741,281.844238 196.495377,280.674225 193.811050,277.081299 
	C186.960373,267.911835 179.700592,259.048035 172.065002,249.378830 
	C180.758362,245.546997 188.491653,240.682083 196.876968,238.920120 
	C203.165527,237.598740 210.308289,240.166229 217.044205,241.178848 
	C261.320770,247.834976 305.590302,254.538025 349.860626,261.235596 
	C350.681183,261.359741 351.483398,261.604858 352.678528,261.933044 
	C350.530273,265.694946 346.896973,266.229645 342.868408,265.762115 
	C303.886536,261.238007 264.904449,256.715454 225.918854,252.223511 
	C221.460693,251.709839 216.977951,251.412994 212.511414,250.967484 
	C206.803070,250.398102 202.329819,253.089325 196.888992,256.720642 
	C205.158936,262.909363 209.252945,272.354858 221.367630,273.493317 
	C263.247620,277.428802 305.028198,282.431641 346.827118,287.199219 
	C349.810669,287.539581 352.636566,289.261963 355.759277,290.603699 
z"/>
<path fill="#13131C" opacity="1.000000" stroke="none" 
	d="
M84.686378,198.236542 
	C86.260391,195.937332 87.648682,192.904877 89.781494,192.231873 
	C104.851105,187.476562 120.059738,183.156998 135.262772,178.834717 
	C137.455048,178.211426 139.854691,178.121445 142.158905,178.117737 
	C170.643661,178.071899 199.128632,178.038773 227.613327,178.100876 
	C260.929840,178.173492 291.176727,187.946716 318.395599,207.127792 
	C323.295990,210.581100 328.236969,213.987198 332.982025,217.644928 
	C334.600555,218.892563 335.675446,220.845413 337.087341,222.838196 
	C336.434540,226.743744 334.086487,228.012085 330.658722,228.007553 
	C306.210236,227.975235 281.700348,229.042114 257.333099,227.632233 
	C238.838547,226.562134 220.526443,222.348969 202.131424,219.545792 
	C186.906311,217.225647 171.678665,214.922180 156.141510,212.564148 
	C156.141510,210.732208 156.141510,209.286804 156.261093,207.116486 
	C157.971100,205.172913 159.561523,203.954239 161.536972,202.856232 
	C164.632477,203.408447 167.342972,203.840012 170.700272,204.374557 
	C170.700272,200.270767 170.661102,196.856476 170.710938,193.443451 
	C170.764267,189.789078 169.168182,188.019287 165.370331,188.093231 
	C159.600922,188.205566 153.827179,188.095963 147.595474,188.049286 
	C135.875488,187.188400 126.014183,192.204483 115.620445,195.457291 
	C121.318733,196.974777 126.963936,198.094971 132.662445,198.754471 
	C136.075806,199.149506 137.318039,200.730042 136.977036,203.941086 
	C136.526276,205.469772 136.075516,206.998444 135.422684,209.212402 
	C128.002075,208.126099 120.371941,207.022446 112.746262,205.888870 
	C105.869751,204.866653 98.940826,204.080627 92.153366,202.634842 
	C89.548691,202.080017 87.271606,199.987305 84.686378,198.236542 
M219.884384,188.242401 
	C213.807968,188.242401 207.731552,188.242401 201.187042,188.242401 
	C201.187042,194.566849 200.984482,200.363113 201.342453,206.124527 
	C201.422806,207.417664 203.321121,209.470474 204.623734,209.680969 
	C218.721375,211.959183 232.867233,213.939056 247.701508,216.368790 
	C252.814743,216.909912 257.922607,217.848267 263.042236,217.917603 
	C278.352173,218.124908 293.666748,217.992004 308.979492,217.991928 
	C310.726440,217.991913 312.473358,217.991913 314.220306,217.991913 
	C314.365936,217.553497 314.511536,217.115082 314.657166,216.676651 
	C309.697327,213.491714 304.878174,210.057587 299.753723,207.164246 
	C275.250092,193.329102 248.993851,186.697708 219.884384,188.242401 
M180.964951,196.520187 
	C180.980865,198.340103 181.004196,200.159973 181.011200,201.979919 
	C181.027451,206.197220 184.166153,206.550766 187.185303,206.801804 
	C190.838669,207.105576 191.001984,204.460892 191.016510,201.835709 
	C191.032089,199.022919 190.869110,196.199768 191.056870,193.399429 
	C191.366898,188.775345 188.895126,187.699356 184.906311,188.045746 
	C179.552826,188.510666 181.398773,192.614639 180.964951,196.520187 
z"/>
<path fill="#485043" opacity="1.000000" stroke="none" 
	d="
M137.346542,204.108215 
	C137.318039,200.730042 136.075806,199.149506 132.662445,198.754471 
	C126.963936,198.094971 121.318733,196.974777 115.620445,195.457291 
	C126.014183,192.204483 135.875488,187.188400 147.685394,188.368195 
	C152.540726,193.390823 156.846344,198.063202 161.151947,202.735565 
	C159.561523,203.954239 157.971100,205.172913 156.184586,206.695221 
	C149.897675,206.091003 143.806870,205.183167 137.346542,204.108215 
z"/>
<path fill="#11131C" opacity="1.000000" stroke="none" 
	d="
M70.883110,278.444611 
	C75.974030,274.944824 80.585365,270.694977 86.017387,268.809509 
	C98.845085,264.356995 112.904610,270.567749 119.551208,282.509399 
	C126.179794,294.418671 123.281487,309.136475 112.218216,318.765228 
	C92.396927,333.456482 68.830612,320.516754 65.429581,300.538788 
	C64.057556,292.479340 67.022522,285.540802 70.883110,278.444611 
M105.645866,310.739532 
	C112.584038,305.177460 114.990707,296.429291 111.493736,288.483765 
	C108.311119,281.252533 102.503799,277.354767 94.678085,277.387787 
	C88.195007,277.415100 82.117821,279.048950 78.571938,286.288391 
	C73.194221,293.891296 74.380615,303.627106 81.472282,310.089478 
	C88.344780,316.352142 98.303871,316.709106 105.645866,310.739532 
z"/>
<path fill="#11131C" opacity="1.000000" stroke="none" 
	d="
M394.893402,278.393616 
	C396.016388,277.215668 397.063873,276.402679 398.043274,275.514618 
	C410.879761,263.875702 428.751007,264.781067 440.109894,277.656738 
	C450.630493,289.582184 449.025055,307.605225 436.232574,318.757751 
	C416.364563,333.478210 392.806305,320.483185 389.423431,300.511719 
	C388.056763,292.443207 391.057159,285.507782 394.893402,278.393616 
M402.571991,286.288391 
	C397.194244,293.891327 398.380615,303.627350 405.472260,310.089539 
	C412.344635,316.351990 422.304077,316.708923 429.645935,310.739502 
	C436.584106,305.177277 438.990662,296.429230 435.493683,288.483765 
	C432.311066,281.252472 426.503754,277.354797 418.678070,277.387756 
	C412.194977,277.415039 406.117889,279.048981 402.571991,286.288391 
z"/>
<path fill="#485043" opacity="1.000000" stroke="none" 
	d="
M220.776031,188.428696 
	C248.993851,186.697708 275.250092,193.329102 299.753723,207.164246 
	C304.878174,210.057587 309.697327,213.491714 314.657166,216.676651 
	C314.511536,217.115082 314.365936,217.553497 314.220306,217.991913 
	C312.473358,217.991913 310.726440,217.991913 308.979492,217.991928 
	C293.666748,217.992004 278.352173,218.124908 263.042236,217.917603 
	C257.922607,217.848267 252.814743,216.909912 247.164185,215.910141 
	C242.353622,211.118698 238.026871,206.837097 233.821899,202.439056 
	C229.412415,197.827118 225.119751,193.103516 220.776031,188.428696 
z"/>
<path fill="#727C6A" opacity="1.000000" stroke="none" 
	d="
M220.330200,188.335541 
	C225.119751,193.103516 229.412415,197.827118 233.821899,202.439056 
	C238.026871,206.837097 242.353622,211.118698 246.813385,215.725952 
	C232.867233,213.939056 218.721375,211.959183 204.623734,209.680969 
	C203.321121,209.470474 201.422806,207.417664 201.342453,206.124527 
	C200.984482,200.363113 201.187042,194.566849 201.187042,188.242401 
	C207.731552,188.242401 213.807968,188.242401 220.330200,188.335541 
z"/>
<path fill="#717A69" opacity="1.000000" stroke="none" 
	d="
M161.536972,202.856232 
	C156.846344,198.063202 152.540726,193.390823 148.145203,188.399536 
	C153.827179,188.095963 159.600922,188.205566 165.370331,188.093231 
	C169.168182,188.019287 170.764267,189.789078 170.710938,193.443451 
	C170.661102,196.856476 170.700272,200.270767 170.700272,204.374557 
	C167.342972,203.840012 164.632477,203.408447 161.536972,202.856232 
z"/>
<path fill="#323D2C" opacity="1.000000" stroke="none" 
	d="
M180.965073,196.051056 
	C181.398773,192.614639 179.552826,188.510666 184.906311,188.045746 
	C188.895126,187.699356 191.366898,188.775345 191.056870,193.399429 
	C190.869110,196.199768 191.032089,199.022919 191.016510,201.835709 
	C191.001984,204.460892 190.838669,207.105576 187.185303,206.801804 
	C184.166153,206.550766 181.027451,206.197220 181.011200,201.979919 
	C181.004196,200.159973 180.980865,198.340103 180.965073,196.051056 
z"/>
<path fill="#737D6B" opacity="1.000000" stroke="none" 
	d="
M79.243713,285.977997 
	C82.117821,279.048950 88.195007,277.415100 94.678085,277.387787 
	C102.503799,277.354767 108.311119,281.252533 111.493736,288.483765 
	C114.990707,296.429291 112.584038,305.177460 105.107208,310.550720 
	C103.698090,309.927277 102.870621,309.268829 101.950623,309.092133 
	C90.914795,306.972504 84.109161,300.498901 81.411598,289.577393 
	C81.090752,288.278351 79.985413,287.173096 79.243713,285.977997 
z"/>
<path fill="#485043" opacity="1.000000" stroke="none" 
	d="
M78.907822,286.133179 
	C79.985413,287.173096 81.090752,288.278351 81.411598,289.577393 
	C84.109161,300.498901 90.914795,306.972504 101.950623,309.092133 
	C102.870621,309.268829 103.698090,309.927277 104.784775,310.647369 
	C98.303871,316.709106 88.344780,316.352142 81.472282,310.089478 
	C74.380615,303.627106 73.194221,293.891296 78.907822,286.133179 
z"/>
<path fill="#737D6B" opacity="1.000000" stroke="none" 
	d="
M403.243774,285.977966 
	C406.117889,279.048981 412.194977,277.415039 418.678070,277.387756 
	C426.503754,277.354797 432.311066,281.252472 435.493683,288.483765 
	C438.990662,296.429230 436.584106,305.177277 429.107239,310.550720 
	C427.698120,309.927307 426.870667,309.268860 425.950653,309.092194 
	C414.914917,306.972473 408.109070,300.499023 405.411652,289.577423 
	C405.090790,288.278381 403.985474,287.173065 403.243774,285.977966 
z"/>
<path fill="#485043" opacity="1.000000" stroke="none" 
	d="
M402.907898,286.133179 
	C403.985474,287.173065 405.090790,288.278381 405.411652,289.577423 
	C408.109070,300.499023 414.914917,306.972473 425.950653,309.092194 
	C426.870667,309.268860 427.698120,309.927307 428.784851,310.647400 
	C422.304077,316.708923 412.344635,316.351990 405.472260,310.089539 
	C398.380615,303.627350 397.194244,293.891327 402.907898,286.133179 
z"/>
</svg>