<svg version="1.1" id="Layer_1" xmlns="http://www.w3.org/2000/svg" xmlns:xlink="http://www.w3.org/1999/xlink" x="0px" y="0px"
	 width="100%" viewBox="0 0 512 512" enable-background="new 0 0 512 512" xml:space="preserve">
<path fill="#000000" opacity="1.000000" stroke="none" 
	d="
M513.000000,191.000000 
	C513.000000,194.692902 513.000000,198.385818 512.614136,202.676086 
	C510.270508,212.919373 508.295227,222.561798 506.360626,232.212387 
	C504.894073,239.528122 501.532593,244.879486 493.215302,245.354858 
	C488.651459,245.615723 484.094147,245.991669 479.215973,246.338318 
	C479.856781,247.442276 480.434662,248.539139 481.105347,249.575974 
	C484.344086,254.582977 488.241028,259.277191 490.746277,264.624908 
	C498.915192,282.062134 500.824219,300.456177 498.039062,319.461945 
	C495.322693,337.998413 487.215851,353.747925 474.354156,367.245697 
	C473.060791,368.602966 472.125641,370.898651 472.101135,372.772888 
	C471.915924,386.936188 472.433960,401.119934 471.882324,415.264130 
	C471.288239,430.495911 465.016174,438.606171 448.040161,438.944824 
	C434.379852,439.217346 420.706665,439.170380 407.045471,438.921906 
	C400.993927,438.811859 395.420288,437.168732 390.819214,432.492340 
	C386.430664,428.031921 385.289215,422.698120 385.054108,416.977509 
	C384.810791,411.057526 385.000000,405.119751 385.000000,399.293945 
	C299.340393,399.293945 214.272491,399.293945 129.000000,399.293945 
	C129.000000,405.399506 129.154633,411.217438 128.969147,417.024506 
	C128.526688,430.876923 120.640259,438.510712 106.907677,438.910034 
	C92.920448,439.316803 78.905907,439.233795 64.916977,438.857483 
	C60.723179,438.744659 56.239410,437.611176 52.474171,435.756378 
	C43.907825,431.536499 42.253353,423.194275 42.079388,414.721466 
	C41.788654,400.561707 42.112556,386.389801 41.879948,372.227936 
	C41.844624,370.077240 40.730797,367.440765 39.224762,365.899933 
	C29.891741,356.351440 23.362627,345.166443 19.022478,332.641296 
	C15.100523,321.323029 14.540172,309.592194 14.995398,297.751495 
	C15.518634,284.141754 18.594358,271.267395 25.819504,259.556976 
	C28.489256,255.229889 31.099730,250.866241 34.052315,245.999985 
	C30.740892,245.999985 27.631622,246.261642 24.581003,245.949707 
	C16.260145,245.098877 10.148417,244.396790 7.922173,232.576385 
	C7.089364,228.154510 6.132654,223.743561 4.956500,219.402374 
	C3.822849,215.218079 2.333230,211.130219 1.000001,207.000000 
	C1.000000,201.645065 1.000000,196.290146 1.347853,190.384079 
	C4.697991,185.113800 8.768456,182.838684 14.586467,182.920273 
	C30.899744,183.149063 47.218319,183.000000 62.449627,183.000000 
	C70.270706,166.667953 77.447029,150.752548 85.502312,135.295197 
	C88.975693,128.630096 93.935173,122.634193 98.801666,116.821663 
	C109.844292,103.632347 125.176140,97.049904 140.951233,92.208557 
	C156.278244,87.504730 172.065048,84.068390 187.849152,81.154678 
	C201.434708,78.646805 215.262222,77.036285 229.054230,76.178673 
	C242.336411,75.352768 255.716690,75.742096 269.041779,76.077652 
	C280.716644,76.371658 292.426880,76.855118 304.026520,78.123329 
	C317.393127,79.584732 330.731567,81.596825 343.944977,84.095665 
	C362.932983,87.686577 381.392120,93.378746 398.100586,103.219040 
	C405.313110,107.466789 412.326111,113.019890 417.549072,119.496620 
	C432.713531,138.301346 442.044250,160.395859 450.420807,183.000000 
	C466.200317,183.000000 481.859528,183.284882 497.500244,182.871078 
	C504.551605,182.684540 509.622650,184.869690 513.000000,191.000000 
M294.345490,117.000000 
	C290.427490,116.666679 286.512573,116.097366 282.590851,116.045830 
	C272.275269,115.910286 261.941284,115.640823 251.642899,116.083115 
	C235.713867,116.767220 219.786789,117.740227 203.898575,119.066414 
	C185.658356,120.588936 167.915222,124.872299 150.788849,131.173874 
	C140.501709,134.958954 130.111816,139.401489 124.089531,149.521484 
	C119.915550,156.535568 115.951866,163.721283 112.525436,171.122528 
	C107.724113,181.493591 103.509735,192.136383 98.943016,202.901611 
	C204.633698,202.901611 309.575867,202.901611 415.580017,202.901611 
	C408.521881,187.434433 401.985687,172.300507 394.716095,157.527481 
	C391.156677,150.294235 386.727081,143.379959 379.370697,139.001160 
	C366.801971,131.519760 353.108673,126.960800 338.932190,124.123116 
	C324.486725,121.231583 309.842407,119.333328 294.345490,117.000000 
M107.914375,345.972900 
	C122.522316,346.437531 134.692917,341.644928 143.179581,329.284241 
	C155.700531,311.047668 150.166611,288.162323 132.973602,276.329315 
	C119.030823,266.733276 98.011246,268.114197 85.322433,280.931366 
	C73.967873,292.400848 69.928421,311.118835 78.893509,326.433746 
	C85.258034,337.306091 94.732719,343.572815 107.914375,345.972900 
M393.063904,344.578613 
	C395.599976,345.052399 398.127350,345.878082 400.673615,345.941223 
	C414.231812,346.277252 425.293793,340.980652 433.292297,330.096771 
	C440.203705,320.692108 442.156250,310.096161 439.212921,298.645966 
	C435.391785,283.780701 425.580902,275.187439 411.206146,270.941498 
	C400.032379,267.641113 381.990997,272.963593 374.697205,281.752197 
	C363.420441,295.339996 360.625305,312.854736 370.853485,328.361908 
	C376.038910,336.223633 382.670990,342.318939 393.063904,344.578613 
z"/>
<path fill="#FFFFFF" opacity="1.000000" stroke="none" 
	d="
M513.000000,190.531342 
	C509.622650,184.869690 504.551605,182.684540 497.500244,182.871078 
	C481.859528,183.284882 466.200317,183.000000 450.420807,183.000000 
	C442.044250,160.395859 432.713531,138.301346 417.549072,119.496620 
	C412.326111,113.019890 405.313110,107.466789 398.100586,103.219040 
	C381.392120,93.378746 362.932983,87.686577 343.944977,84.095665 
	C330.731567,81.596825 317.393127,79.584732 304.026520,78.123329 
	C292.426880,76.855118 280.716644,76.371658 269.041779,76.077652 
	C255.716690,75.742096 242.336411,75.352768 229.054230,76.178673 
	C215.262222,77.036285 201.434708,78.646805 187.849152,81.154678 
	C172.065048,84.068390 156.278244,87.504730 140.951233,92.208557 
	C125.176140,97.049904 109.844292,103.632347 98.801666,116.821663 
	C93.935173,122.634193 88.975693,128.630096 85.502312,135.295197 
	C77.447029,150.752548 70.270706,166.667953 62.449627,183.000000 
	C47.218319,183.000000 30.899744,183.149063 14.586467,182.920273 
	C8.768456,182.838684 4.697991,185.113800 1.347853,189.916473 
	C1.000000,127.030930 1.000000,64.061852 1.000000,1.046390 
	C171.551956,1.046390 342.103912,1.046390 513.000000,1.046390 
	C513.000000,64.020477 513.000000,127.041580 513.000000,190.531342 
z"/>
<path fill="#FFFFFF" opacity="1.000000" stroke="none" 
	d="
M1.000001,207.468658 
	C2.333230,211.130219 3.822849,215.218079 4.956500,219.402374 
	C6.132654,223.743561 7.089364,228.154510 7.922173,232.576385 
	C10.148417,244.396790 16.260145,245.098877 24.581003,245.949707 
	C27.631622,246.261642 30.740892,245.999985 34.052315,245.999985 
	C31.099730,250.866241 28.489256,255.229889 25.819504,259.556976 
	C18.594358,271.267395 15.518634,284.141754 14.995398,297.751495 
	C14.540172,309.592194 15.100523,321.323029 19.022478,332.641296 
	C23.362627,345.166443 29.891741,356.351440 39.224762,365.899933 
	C40.730797,367.440765 41.844624,370.077240 41.879948,372.227936 
	C42.112556,386.389801 41.788654,400.561707 42.079388,414.721466 
	C42.253353,423.194275 43.907825,431.536499 52.474171,435.756378 
	C56.239410,437.611176 60.723179,438.744659 64.916977,438.857483 
	C78.905907,439.233795 92.920448,439.316803 106.907677,438.910034 
	C120.640259,438.510712 128.526688,430.876923 128.969147,417.024506 
	C129.154633,411.217438 129.000000,405.399506 129.000000,399.293945 
	C214.272491,399.293945 299.340393,399.293945 385.000000,399.293945 
	C385.000000,405.119751 384.810791,411.057526 385.054108,416.977509 
	C385.289215,422.698120 386.430664,428.031921 390.819214,432.492340 
	C395.420288,437.168732 400.993927,438.811859 407.045471,438.921906 
	C420.706665,439.170380 434.379852,439.217346 448.040161,438.944824 
	C465.016174,438.606171 471.288239,430.495911 471.882324,415.264130 
	C472.433960,401.119934 471.915924,386.936188 472.101135,372.772888 
	C472.125641,370.898651 473.060791,368.602966 474.354156,367.245697 
	C487.215851,353.747925 495.322693,337.998413 498.039062,319.461945 
	C500.824219,300.456177 498.915192,282.062134 490.746277,264.624908 
	C488.241028,259.277191 484.344086,254.582977 481.105347,249.575974 
	C480.434662,248.539139 479.856781,247.442276 479.215973,246.338318 
	C484.094147,245.991669 488.651459,245.615723 493.215302,245.354858 
	C501.532593,244.879486 504.894073,239.528122 506.360626,232.212387 
	C508.295227,222.561798 510.270508,212.919373 512.614136,203.136719 
	C513.000000,306.293243 513.000000,409.586456 513.000000,512.939819 
	C342.439667,512.939819 171.879318,512.939819 1.000000,512.939819 
	C1.000000,411.312653 1.000000,309.625000 1.000001,207.468658 
z"/>
<path fill="#FFFFFF" opacity="1.000000" stroke="none" 
	d="
M294.815308,117.000092 
	C309.842407,119.333328 324.486725,121.231583 338.932190,124.123116 
	C353.108673,126.960800 366.801971,131.519760 379.370697,139.001160 
	C386.727081,143.379959 391.156677,150.294235 394.716095,157.527481 
	C401.985687,172.300507 408.521881,187.434433 415.580017,202.901611 
	C309.575867,202.901611 204.633698,202.901611 98.943016,202.901611 
	C103.509735,192.136383 107.724113,181.493591 112.525436,171.122528 
	C115.951866,163.721283 119.915550,156.535568 124.089531,149.521484 
	C130.111816,139.401489 140.501709,134.958954 150.788849,131.173874 
	C167.915222,124.872299 185.658356,120.588936 203.898575,119.066414 
	C219.786789,117.740227 235.713867,116.767220 251.642899,116.083115 
	C261.941284,115.640823 272.275269,115.910286 282.590851,116.045830 
	C286.512573,116.097366 290.427490,116.666679 294.815308,117.000092 
z"/>
<path fill="#FFFFFF" opacity="1.000000" stroke="none" 
	d="
M107.503357,345.793884 
	C94.732719,343.572815 85.258034,337.306091 78.893509,326.433746 
	C69.928421,311.118835 73.967873,292.400848 85.322433,280.931366 
	C98.011246,268.114197 119.030823,266.733276 132.973602,276.329315 
	C150.166611,288.162323 155.700531,311.047668 143.179581,329.284241 
	C134.692917,341.644928 122.522316,346.437531 107.503357,345.793884 
z"/>
<path fill="#FFFFFF" opacity="1.000000" stroke="none" 
	d="
M392.731506,344.313416 
	C382.670990,342.318939 376.038910,336.223633 370.853485,328.361908 
	C360.625305,312.854736 363.420441,295.339996 374.697205,281.752197 
	C381.990997,272.963593 400.032379,267.641113 411.206146,270.941498 
	C425.580902,275.187439 435.391785,283.780701 439.212921,298.645966 
	C442.156250,310.096161 440.203705,320.692108 433.292297,330.096771 
	C425.293793,340.980652 414.231812,346.277252 400.673615,345.941223 
	C398.127350,345.878082 395.599976,345.052399 392.731506,344.313416 
z"/>
</svg>